<svg xmlns="http://www.w3.org/2000/svg" viewBox="0 0 32 32" fill="#ffffff">
  <path d="M16 2C8.27 2 2 8.27 2 16c0 6.18 4.01 11.42 9.57 13.27.7.13.96-.3.96-.67 0-.33-.01-1.42-.02-2.58-3.9.85-4.72-1.65-4.72-1.65-.64-1.62-1.56-2.05-1.56-2.05-1.27-.87.1-.85.1-.85 1.4.1 2.14 1.44 2.14 1.44 1.25 2.14 3.28 1.52 4.08 1.16.13-.91.49-1.52.89-1.87-3.11-.35-6.38-1.56-6.38-6.93 0-1.53.55-2.78 1.44-3.76-.14-.36-.63-1.78.14-3.72 0 0 1.17-.38 3.85 1.44a13.37 13.37 0 0 1 7.02 0c2.67-1.81 3.84-1.44 3.84-1.44.77 1.94.28 3.36.14 3.72.9.98 1.44 2.23 1.44 3.76 0 5.38-3.28 6.57-6.4 6.92.5.43.95 1.29.95 2.6 0 1.88-.02 3.39-.02 3.85 0 .37.25.81.96.67C25.99 27.42 30 22.18 30 16c0-7.73-6.27-14-14-14Z"/>
</svg>
