<svg xmlns="http://www.w3.org/2000/svg" viewBox="0 0 32 32" fill="none">
  <path d="M16.32 13.78v4.89h7.56c-.32 1.68-1.18 3.1-2.52 4.05l4.06 3.15c2.38-2.2 3.75-5.42 3.75-9.25 0-.89-.08-1.74-.23-2.57H16.32v-.27Z" fill="#4285F4"/>
  <path d="M16 28c3.42 0 6.29-1.13 8.39-3.07l-4.06-3.15c-1.13.76-2.58 1.22-4.33 1.22a7.52 7.52 0 0 1-7.08-5.19l-4.18 3.23A12.97 12.97 0 0 0 16 28Z" fill="#34A853"/>
  <path d="M8.92 17.81A7.7 7.7 0 0 1 8.52 16c0-.63.11-1.24.4-1.81L4.74 10.96A12.93 12.93 0 0 0 3.04 16c0 2.08.5 4.05 1.7 5.04l4.18-3.23Z" fill="#FBBC05"/>
  <path d="M16 8.58c1.93 0 3.66.66 5.02 1.97l3.76-3.76C22.26 4.49 19.42 3 16 3A12.97 12.97 0 0 0 4.74 10.96l4.18 3.23A7.52 7.52 0 0 1 16 8.58Z" fill="#EA4335"/>
</svg>
