<svg xmlns="http://www.w3.org/2000/svg" viewBox="0 0 32 32" fill="none">
  <path d="M7.08 10.32c-1.8 2.4-2.72 5.16-2.72 7.36 0 1.84.6 3.2 1.84 3.84.68.36 1.48.36 2.36-.08 1.04-.52 2.2-1.76 3.4-3.6l1.84-2.84c1.56-2.4 3.2-4.32 4.92-5.48 1.36-.92 2.68-1.32 3.92-1.08 1.44.28 2.56 1.24 3.24 2.84.56 1.32.8 2.92.8 4.72 0 3.48-1.12 6.52-2.96 8.52" stroke="#0668E1" stroke-width="2.4" stroke-linecap="round" fill="none"/>
  <path d="M24.92 10.32c-1.28-1.6-2.72-2.44-4.16-2.24-1.28.16-2.56 1.16-3.84 3l-1.84 2.84c-1.68 2.56-3.32 4.4-4.84 5.4-1.32.88-2.6 1.2-3.8.92C5 19.88 4 18.48 4 16.52c0-3.44 1.32-7.2 3.08-9.2" stroke="#0668E1" stroke-width="2.4" stroke-linecap="round" fill="none"/>
</svg>
