<svg xmlns="http://www.w3.org/2000/svg" viewBox="0 0 32 32" fill="none">
  <path d="M27.2 13.04c.54-1.6.42-3.37-.34-4.88a6.43 6.43 0 0 0-6.93-3.18A6.4 6.4 0 0 0 15.1 2a6.43 6.43 0 0 0-6.14 4.46 6.42 6.42 0 0 0-4.29 3.12 6.44 6.44 0 0 0 .79 7.54 6.42 6.42 0 0 0 .34 4.88 6.43 6.43 0 0 0 6.93 3.18A6.38 6.38 0 0 0 16.9 30a6.43 6.43 0 0 0 6.14-4.46 6.42 6.42 0 0 0 4.29-3.12 6.44 6.44 0 0 0-.79-7.54l-.35-1.84ZM16.9 28.14a4.82 4.82 0 0 1-3.07-1.1l.15-.09 5.1-2.95a.83.83 0 0 0 .42-.72v-7.2l2.16 1.24a.08.08 0 0 1 .04.06v5.96a4.84 4.84 0 0 1-4.8 4.8ZM6.5 23.48a4.8 4.8 0 0 1-.58-3.24l.15.09 5.1 2.95a.84.84 0 0 0 .84 0l6.23-3.6v2.49a.08.08 0 0 1-.03.07l-5.16 2.98a4.84 4.84 0 0 1-6.55-1.74ZM5.2 11.26a4.82 4.82 0 0 1 2.5-2.12v6.07a.83.83 0 0 0 .42.72l6.23 3.6-2.16 1.24a.08.08 0 0 1-.07 0L7 17.8a4.84 4.84 0 0 1-1.78-6.55Zm19.1 4.44-6.23-3.6 2.16-1.24a.08.08 0 0 1 .07 0l5.16 2.98a4.83 4.83 0 0 1-.74 8.68v-6.1a.83.83 0 0 0-.42-.72Zm2.14-3.26-.15-.09-5.1-2.95a.84.84 0 0 0-.84 0l-6.23 3.6V10.5a.08.08 0 0 1 .03-.07l5.16-2.98a4.84 4.84 0 0 1 7.13 5Zm-13.5 4.44-2.16-1.24a.08.08 0 0 1-.04-.06v-5.96a4.84 4.84 0 0 1 7.92-3.72l-.15.09-5.1 2.95a.83.83 0 0 0-.42.72l-.05 7.22Zm1.17-2.53 2.77-1.6 2.77 1.6v3.2l-2.77 1.6-2.77-1.6v-3.2Z" fill="#ffffff"/>
</svg>
